<?xml version="1.0" encoding="UTF-8" standalone="no"?>
<svg
   xmlns:dc="http://purl.org/dc/elements/1.1/"
   xmlns:cc="http://creativecommons.org/ns#"
   xmlns:rdf="http://www.w3.org/1999/02/22-rdf-syntax-ns#"
   xmlns:svg="http://www.w3.org/2000/svg"
   xmlns="http://www.w3.org/2000/svg"
   id="SVGRoot"
   version="1.1"
   viewBox="0 0 100 20"
   height="20px"
   width="100px">
  <defs
     id="defs6151" />
  <metadata
     id="metadata6154">
    <rdf:RDF>
      <cc:Work
         rdf:about="">
        <dc:format>image/svg+xml</dc:format>
        <dc:type
           rdf:resource="http://purl.org/dc/dcmitype/StillImage" />
        <dc:title></dc:title>
      </cc:Work>
    </rdf:RDF>
  </metadata>
  <g
     id="layer1">
    <g
       transform="matrix(1.2425265,0,0,1.2425265,-55.543103,-127.48845)"
       id="g4724">
      <g
         transform="translate(2.4148668e-6,-0.49110686)"
         id="g6838">
        <g
           aria-label="PedestrianSlayer2"
           style="font-style:normal;font-weight:normal;font-size:4.23333311px;line-height:1.25;font-family:sans-serif;letter-spacing:0px;word-spacing:0px;fill:#000000;fill-opacity:1;stroke:none;stroke-width:0.26458332"
           id="text4536">
          <path
             d="m 50.834136,109.6093 c 0,0.79203 -0.207826,1.4335 -0.623477,1.92443 -0.445106,0.52038 -1.058764,0.78057 -1.840973,0.78057 -0.130913,0 -0.32892,-0.007 -0.59402,-0.0196 -0.261827,-0.0163 -0.458198,-0.0245 -0.589112,-0.0245 -0.140732,0 -0.211098,0.0605 -0.211098,0.18164 0,0.15055 0.01473,0.37474 0.04418,0.67257 0.02945,0.29783 0.04418,0.52038 0.04418,0.66766 0,0.0753 -0.03437,0.11291 -0.103095,0.11291 -0.199643,0 -0.499107,-0.007 -0.898394,-0.0196 -0.399287,-0.01 -0.698752,-0.0147 -0.898395,-0.0147 -0.09491,0 -0.142369,-0.0475 -0.142369,-0.14237 0,-0.36329 0.0049,-0.90822 0.01473,-1.63479 0.01309,-0.72984 0.01964,-1.2764 0.01964,-1.63969 0,-1.02767 -0.04418,-2.10771 -0.13255,-3.24011 -0.0016,-0.0229 -0.0033,-0.0458 -0.0049,-0.0687 -0.0065,-0.0622 0.04256,-0.0998 0.147278,-0.11291 0.255281,-0.0327 0.81821,-0.0491 1.688786,-0.0491 0.513836,0 1.006398,0.007 1.477687,0.0196 0.775663,0.0229 1.400776,0.26676 1.875338,0.73148 0.484381,0.47783 0.726571,1.10295 0.726571,1.87534 z m -1.958796,0.0785 c 0,-0.76257 -0.371467,-1.14386 -1.114402,-1.14386 -0.523655,0 -0.798573,0.0295 -0.824756,0.0884 -0.02291,0.0425 -0.03436,0.42054 -0.03436,1.13403 0,0.10146 0.0033,0.25201 0.0098,0.45166 0.0098,0.19637 0.01473,0.34528 0.01473,0.44674 0,0.0655 0.294556,0.0982 0.883667,0.0982 0.710206,0 1.065309,-0.35837 1.065309,-1.07512 z"
             style="font-style:normal;font-variant:normal;font-weight:bold;font-stretch:normal;font-size:10.05416679px;font-family:'Berlin Sans FB Demi';-inkscape-font-specification:'Berlin Sans FB Demi, Bold';font-variant-ligatures:normal;font-variant-caps:normal;font-variant-numeric:normal;font-feature-settings:normal;text-align:start;writing-mode:lr-tb;text-anchor:start;fill:#ff6600;stroke-width:0.26458332"
             id="path6729" />
          <path
             d="m 56.074132,111.20481 q 0,0.49583 -0.319102,0.56456 -0.054,0.01 -1.016217,0.10801 -0.579293,0.0638 -1.72806,0.15218 0.06873,0.31911 0.417287,0.48602 0.284737,0.13746 0.648023,0.13746 0.436924,0 0.878758,-0.23564 0.186551,-0.11783 0.373103,-0.23565 0.103095,0.0491 0.343649,0.50075 0.245463,0.45165 0.245463,0.57438 0,0.0344 -0.07364,0.11291 -0.59893,0.64312 -1.86061,0.64312 -1.168404,0 -1.885156,-0.68239 -0.73639,-0.69221 -0.73639,-1.85079 0,-1.12913 0.657841,-1.85079 0.677478,-0.74621 1.79679,-0.74621 0.942578,0 1.600419,0.68729 0.657841,0.6873 0.657842,1.63479 z m -1.718241,-0.29947 q 0,-0.30437 -0.216008,-0.53511 -0.216007,-0.23073 -0.515472,-0.23073 -0.309284,0 -0.510563,0.26019 -0.186552,0.24055 -0.186552,0.56456 0,0.13255 0.137459,0.13255 0.363285,0 1.12913,-0.11291 0.162006,-0.0246 0.162006,-0.0786 z"
             style="font-style:normal;font-variant:normal;font-weight:bold;font-stretch:normal;font-size:10.05416679px;font-family:'Berlin Sans FB Demi';-inkscape-font-specification:'Berlin Sans FB Demi, Bold';font-variant-ligatures:normal;font-variant-caps:normal;font-variant-numeric:normal;font-feature-settings:normal;text-align:start;writing-mode:lr-tb;text-anchor:start;fill:#ff6600;stroke-width:0.26458332"
             id="path6731" />
          <path
             d="m 61.727786,106.9043 c 0,-0.072 -0.01309,0.036 -0.03927,0.32401 -0.036,0.36328 -0.06382,0.82802 -0.08346,1.39423 -0.02618,0.64147 -0.03927,1.37132 -0.03927,2.18953 0,1.35168 0.03764,2.31389 0.112913,2.88664 0.0065,0.0622 0.0098,0.10147 0.0098,0.11782 0,0.036 -0.02455,0.0573 -0.07364,0.0638 -0.117822,0.0163 -0.551473,0.0245 -1.300954,0.0245 -0.176733,0 -0.278191,-0.0344 -0.304374,-0.10309 -0.0065,-0.12437 -0.01308,-0.24874 -0.01964,-0.37311 -0.0033,-0.0262 -0.01636,-0.0524 -0.03927,-0.0785 -0.01964,0.01 -0.04419,0.0294 -0.07364,0.0589 -0.353467,0.34692 -0.7953,0.52038 -1.325501,0.52038 -0.690569,0 -1.243679,-0.24219 -1.65933,-0.72657 -0.396014,-0.46147 -0.594021,-1.04404 -0.594021,-1.7477 0,-0.71348 0.194734,-1.30095 0.584202,-1.76242 0.412378,-0.49093 0.968761,-0.73639 1.669149,-0.73639 0.494199,0 0.878758,0.1571 1.153677,0.47129 0.04582,0.0523 0.07855,0.0785 0.09819,0.0785 0.02945,0 0.04418,-0.0425 0.04418,-0.12764 0,-0.25201 -0.0065,-0.62838 -0.01964,-1.12913 -0.01309,-0.50074 -0.01964,-0.87548 -0.01964,-1.12422 0,-0.0949 0.02618,-0.14891 0.07855,-0.162 0.209462,-0.01 0.497472,-0.0294 0.86403,-0.0589 0.654568,-0.0818 0.944214,-0.12274 0.868939,-0.12274 0.072,0 0.108004,0.0409 0.108004,0.12274 z m -1.850791,4.51161 c 0,-0.25856 -0.09,-0.48439 -0.27001,-0.67748 -0.180006,-0.19637 -0.39765,-0.29456 -0.652931,-0.29456 -0.268373,0 -0.482745,0.0982 -0.643114,0.29456 -0.157096,0.19309 -0.235644,0.42546 -0.235644,0.69711 0,0.2651 0.08019,0.48929 0.240554,0.67257 0.163642,0.19637 0.376377,0.29456 0.638204,0.29456 0.261827,0 0.481108,-0.0982 0.657841,-0.29456 0.176733,-0.19637 0.2651,-0.4271 0.2651,-0.6922 z"
             style="font-style:normal;font-variant:normal;font-weight:bold;font-stretch:normal;font-size:10.05416679px;font-family:'Berlin Sans FB Demi';-inkscape-font-specification:'Berlin Sans FB Demi, Bold';font-variant-ligatures:normal;font-variant-caps:normal;font-variant-numeric:normal;font-feature-settings:normal;text-align:start;writing-mode:lr-tb;text-anchor:start;fill:#ff6600;stroke-width:0.26458332"
             id="path6733" />
          <path
             d="m 67.05124,111.20481 q 0,0.49583 -0.319102,0.56456 -0.054,0.01 -1.016217,0.10801 -0.579293,0.0638 -1.72806,0.15218 0.06873,0.31911 0.417287,0.48602 0.284737,0.13746 0.648023,0.13746 0.436924,0 0.878758,-0.23564 0.186551,-0.11783 0.373103,-0.23565 0.103095,0.0491 0.343649,0.50075 0.245463,0.45165 0.245463,0.57438 0,0.0344 -0.07364,0.11291 -0.59893,0.64312 -1.86061,0.64312 -1.168404,0 -1.885156,-0.68239 -0.73639,-0.69221 -0.73639,-1.85079 0,-1.12913 0.657841,-1.85079 0.677478,-0.74621 1.79679,-0.74621 0.942578,0 1.600419,0.68729 0.657841,0.6873 0.657842,1.63479 z m -1.718241,-0.29947 q 0,-0.30437 -0.216008,-0.53511 -0.216007,-0.23073 -0.515472,-0.23073 -0.309284,0 -0.510563,0.26019 -0.186552,0.24055 -0.186552,0.56456 0,0.13255 0.137459,0.13255 0.363285,0 1.12913,-0.11291 0.162006,-0.0246 0.162006,-0.0786 z"
             style="font-style:normal;font-variant:normal;font-weight:bold;font-stretch:normal;font-size:10.05416679px;font-family:'Berlin Sans FB Demi';-inkscape-font-specification:'Berlin Sans FB Demi, Bold';font-variant-ligatures:normal;font-variant-caps:normal;font-variant-numeric:normal;font-feature-settings:normal;text-align:start;writing-mode:lr-tb;text-anchor:start;fill:#ff6600;stroke-width:0.26458332"
             id="path6735" />
          <path
             d="m 70.372995,109.89894 c 0,0.0327 -0.02455,0.0769 -0.07364,0.13255 -0.09164,-0.0229 -0.183279,-0.0344 -0.274918,-0.0344 -0.193098,0 -0.355104,0.0426 -0.486017,0.12764 -0.157097,0.0982 -0.235645,0.23728 -0.235645,0.41729 0,0.11455 0.08346,0.26019 0.250373,0.43692 0.252009,0.2651 0.407468,0.44347 0.466379,0.53511 0.166915,0.24874 0.250373,0.51548 0.250373,0.80021 0,0.16691 -0.03273,0.34365 -0.09819,0.5302 -0.07528,0.20619 -0.170188,0.35674 -0.284737,0.45165 -0.24219,0.20947 -0.525291,0.3862 -0.849302,0.5302 -0.350194,0.15055 -0.672569,0.22583 -0.967124,0.22583 -0.06546,0 -0.212738,-0.17673 -0.441834,-0.5302 -0.225826,-0.35674 -0.338739,-0.57438 -0.338739,-0.65293 0,-0.0295 0.018,-0.0475 0.054,-0.054 0.229099,-0.0425 0.459834,-0.0851 0.692206,-0.12765 0.28801,-0.0916 0.432015,-0.24218 0.432015,-0.45165 0,-0.144 -0.08346,-0.31091 -0.250372,-0.50074 -0.297829,-0.33056 -0.453289,-0.50566 -0.46638,-0.52529 -0.166915,-0.23565 -0.250373,-0.48438 -0.250373,-0.74621 0,-0.49093 0.248736,-0.90821 0.746208,-1.25186 0.445107,-0.30437 0.921305,-0.45656 1.428595,-0.45656 0.05237,0 0.181644,0.17673 0.387832,0.5302 0.206189,0.35019 0.309283,0.55474 0.309283,0.61365 2e-6,1e-5 5e-6,3e-5 7e-6,4e-5 z"
             style="font-style:normal;font-variant:normal;font-weight:bold;font-stretch:normal;font-size:10.05416679px;font-family:'Berlin Sans FB Demi';-inkscape-font-specification:'Berlin Sans FB Demi, Bold';font-variant-ligatures:normal;font-variant-caps:normal;font-variant-numeric:normal;font-feature-settings:normal;text-align:start;writing-mode:lr-tb;text-anchor:start;fill:#ff6600;stroke-width:0.26458332"
             id="path6737" />
          <path
             d="m 74.459315,112.43212 q 0,0.14728 -0.03927,0.44675 -0.03436,0.29946 -0.03436,0.44183 0,0.13746 -0.02945,0.17673 -0.02946,0.0393 -0.162006,0.11292 -0.633295,0.34855 -1.404049,0.34855 -1.418776,0 -1.418776,-1.08494 0,-0.32401 0.02455,-0.97204 0.02455,-0.65293 0.02455,-0.97694 0,-0.21601 -0.250373,-0.21601 -0.01964,0 -0.06382,0 -0.04418,0.005 -0.06382,0.005 -0.186552,0 -0.186552,-0.13255 0,-0.0785 0.0098,-0.24055 0.01473,-0.16201 0.01473,-0.24056 0,-0.10309 -0.01473,-0.31419 -0.0098,-0.2111 -0.0098,-0.31419 0,-0.0982 0.314192,-0.108 0.176734,-0.005 0.191462,-0.0982 0.02945,-0.18655 0.01964,-0.58911 -0.01964,-0.6333 -0.01964,-0.60384 0,-0.56947 0.108003,-0.56947 0.13255,0 0.378013,0.0589 0.279828,0.0638 0.387832,0.0736 0.250372,0.0344 0.756026,0.0933 0.122732,0.01 0.122732,0.0835 0,0.19637 -0.03436,0.59402 -0.02946,0.39765 -0.02946,0.59893 0,0.24055 0.142369,0.24055 0.171824,0 0.520382,-0.0147 0.348557,-0.0147 0.525291,-0.0147 0.108003,0 0.108003,0.0736 0,0.11291 -0.02455,0.33874 -0.02455,0.22582 -0.02455,0.33873 0,0.11783 0.0049,0.34365 0.0049,0.22583 0.0049,0.34365 0,0.1031 -0.142368,0.1031 -0.09819,0 -0.328921,-0.005 -0.230735,-0.01 -0.32892,-0.01 H 73.13872 q -0.07364,0 -0.07364,0.216 0,0.11783 0,0.34856 0.0049,0.23565 0.0049,0.34856 0,0.41238 0.09328,0.56947 0.13255,0.2111 0.520382,0.2111 0.122732,0 0.348558,-0.054 0.230735,-0.0589 0.324011,-0.0589 0.103094,0 0.103094,0.108 z"
             style="font-style:normal;font-variant:normal;font-weight:bold;font-stretch:normal;font-size:10.05416679px;font-family:'Berlin Sans FB Demi';-inkscape-font-specification:'Berlin Sans FB Demi, Bold';font-variant-ligatures:normal;font-variant-caps:normal;font-variant-numeric:normal;font-feature-settings:normal;text-align:start;writing-mode:lr-tb;text-anchor:start;fill:#ff6600;stroke-width:0.26458332"
             id="path6739" />
          <path
             d="m 78.139445,110.81207 c 0,0.12764 -0.07037,0.19146 -0.211098,0.19146 -0.06219,0 -0.153826,-0.003 -0.274919,-0.01 -0.117822,-0.01 -0.206189,-0.0147 -0.2651,-0.0147 -0.271645,0 -0.456561,0.0425 -0.554746,0.12764 -0.09819,0.0851 -0.147278,0.25692 -0.147278,0.51548 0,0.14073 0.0016,0.3551 0.0049,0.64311 0.0065,0.28473 0.0098,0.49747 0.0098,0.6382 0,0.0949 0.0065,0.23728 0.01964,0.42711 0.01309,0.18655 0.01964,0.32565 0.01964,0.41729 0,0.0786 -0.054,0.12273 -0.162006,0.13255 -0.157096,0.0131 -0.39765,0.0196 -0.721661,0.0196 -0.31092,0 -0.559656,-0.01 -0.746208,-0.0294 -0.108003,-0.0131 -0.162005,-0.0671 -0.162005,-0.16201 0,-0.26183 0.0016,-0.65293 0.0049,-1.17331 0.0033,-0.52365 0.0049,-0.91639 0.0049,-1.17822 0,-0.76912 -0.07037,-1.40242 -0.211098,-1.89989 -0.0065,-0.0295 -0.0098,-0.054 -0.0098,-0.0736 0,-0.0491 0.02455,-0.0818 0.07364,-0.0982 0.180007,-0.0197 0.44347,-0.0557 0.790391,-0.10801 0.517109,-0.10145 0.783846,-0.15218 0.80021,-0.15218 0.05891,0 0.09655,0.10309 0.112913,0.30928 0.01637,0.20619 0.04582,0.30928 0.08837,0.30928 -0.04582,0 0.08837,-0.0851 0.402559,-0.25528 0.314193,-0.17346 0.61693,-0.26019 0.908213,-0.26019 0.183279,0 0.274919,0.0393 0.274919,0.11782 0,0.0949 -0.0098,0.2291 -0.02946,0.40256 -0.01964,0.18655 -0.03109,0.32074 -0.03436,0.40256 0,0.0949 0.0016,0.22092 0.0049,0.37801 0.0065,0.1931 0.0098,0.32074 0.0098,0.38293 z"
             style="font-style:normal;font-variant:normal;font-weight:bold;font-stretch:normal;font-size:10.05416679px;font-family:'Berlin Sans FB Demi';-inkscape-font-specification:'Berlin Sans FB Demi, Bold';font-variant-ligatures:normal;font-variant-caps:normal;font-variant-numeric:normal;font-feature-settings:normal;text-align:start;writing-mode:lr-tb;text-anchor:start;fill:#ff6600;stroke-width:0.26458332"
             id="path6741" />
          <path
             d="m 80.657896,107.9696 c 0,0.56948 -0.320738,0.85422 -0.962215,0.85422 -0.274919,0 -0.502381,-0.072 -0.682387,-0.21601 -0.196371,-0.1571 -0.294556,-0.36984 -0.294556,-0.63821 0,-0.25528 0.101458,-0.46474 0.304374,-0.62838 0.186552,-0.15055 0.410742,-0.22583 0.672569,-0.22583 0.255281,0 0.476198,0.0769 0.66275,0.23074 0.199643,0.16364 0.299465,0.37146 0.299465,0.62347 z m -0.127641,3.64759 c 0,0.23891 0.0049,0.59565 0.01473,1.07021 0.0098,0.47129 0.01473,0.82476 0.01473,1.06041 0,0.0687 -0.04091,0.10964 -0.122732,0.12273 -0.111276,0.0196 -0.361648,0.0294 -0.751117,0.0294 -0.392741,0 -0.644749,-0.01 -0.756026,-0.0294 -0.072,-0.0131 -0.116185,-0.0343 -0.13255,-0.0638 -0.0065,-0.0131 -0.0098,-0.0622 -0.0098,-0.14728 0,-0.22583 0.0049,-0.56457 0.01473,-1.01622 0.0098,-0.45493 0.01473,-0.79694 0.01473,-1.02603 0,-0.92949 -0.036,-1.66915 -0.108003,-2.21899 -0.0065,-0.0524 -0.0098,-0.0868 -0.0098,-0.10309 0,-0.0655 0.04418,-0.0982 0.13255,-0.0982 0.09164,0 0.230735,0.01 0.417287,0.0295 0.189825,0.0196 0.332193,0.0294 0.427106,0.0294 0.09491,0 0.237281,-0.008 0.427106,-0.0245 0.189825,-0.0164 0.332193,-0.0246 0.427105,-0.0246 0.07855,0 0.117823,0.0327 0.117823,0.0982 0,0.0131 -0.0033,0.0442 -0.0098,0.0933 -0.072,0.63821 -0.108004,1.37787 -0.108004,2.21899 z"
             style="font-style:normal;font-variant:normal;font-weight:bold;font-stretch:normal;font-size:10.05416679px;font-family:'Berlin Sans FB Demi';-inkscape-font-specification:'Berlin Sans FB Demi, Bold';font-variant-ligatures:normal;font-variant-caps:normal;font-variant-numeric:normal;font-feature-settings:normal;text-align:start;writing-mode:lr-tb;text-anchor:start;fill:#ff6600;stroke-width:0.26458332"
             id="path6743" />
          <path
             d="m 86.416462,111.41591 c 0,0.25201 0.01473,0.62675 0.04418,1.12422 0.02945,0.49747 0.04418,0.87057 0.04418,1.11931 0,0.13091 -0.05728,0.20128 -0.171824,0.2111 -0.405832,0.0295 -0.870575,0.0442 -1.39423,0.0442 -0.06219,0 -0.104734,-0.0933 -0.127641,-0.27983 -0.01964,-0.18982 -0.04419,-0.28637 -0.07364,-0.28964 -0.02618,0.0131 -0.06055,0.0409 -0.103094,0.0835 -0.366558,0.36983 -0.759299,0.55475 -1.178223,0.55475 -0.638204,0 -1.166768,-0.25201 -1.585691,-0.75603 -0.396014,-0.47129 -0.594021,-1.03421 -0.594021,-1.68878 0,-0.75603 0.204553,-1.36478 0.613658,-1.82625 0.425469,-0.47783 1.008035,-0.71675 1.747697,-0.71675 0.513836,0 0.919668,0.18001 1.217497,0.54002 0.01309,0.0164 0.02455,0.0246 0.03437,0.0246 0.02945,0 0.06218,-0.0785 0.09819,-0.23565 0.03927,-0.16037 0.08509,-0.24055 0.137459,-0.24055 0.121095,0 0.351831,0.0344 0.692206,0.10309 0.324011,0.0655 0.556383,0.12111 0.697115,0.16692 0.04909,0.0196 0.07364,0.0458 0.07364,0.0785 0,0.0131 -0.0049,0.0474 -0.01473,0.1031 -0.104731,0.59239 -0.157096,1.21914 -0.157096,1.88025 z m -1.580782,0.0294 c 0,-0.27819 -0.08837,-0.50729 -0.2651,-0.68729 -0.173461,-0.18328 -0.400923,-0.27492 -0.682388,-0.27492 -0.281464,0 -0.508926,0.09 -0.682387,0.27001 -0.173461,0.18001 -0.260191,0.41074 -0.260191,0.6922 0,0.2651 0.09164,0.49256 0.274919,0.68239 0.183279,0.18983 0.405832,0.28474 0.667659,0.28474 0.278191,0 0.505654,-0.09 0.682388,-0.27001 0.176733,-0.18328 0.2651,-0.41565 0.2651,-0.69712 z"
             style="font-style:normal;font-variant:normal;font-weight:bold;font-stretch:normal;font-size:10.05416679px;font-family:'Berlin Sans FB Demi';-inkscape-font-specification:'Berlin Sans FB Demi, Bold';font-variant-ligatures:normal;font-variant-caps:normal;font-variant-numeric:normal;font-feature-settings:normal;text-align:start;writing-mode:lr-tb;text-anchor:start;fill:#ff6600;stroke-width:0.26458332"
             id="path6745" />
          <path
             d="m 92.273207,113.72817 c 0,0.0884 -0.04582,0.1391 -0.137459,0.15219 -0.09164,0.0131 -0.330557,0.0196 -0.716752,0.0196 -0.412378,0 -0.66766,-0.01 -0.765845,-0.0294 -0.09819,-0.0197 -0.147278,-0.0868 -0.147278,-0.20128 0,-0.15383 0.0049,-0.3862 0.01473,-0.69712 0.0098,-0.31092 0.01473,-0.54493 0.01473,-0.70202 0,-0.12109 -0.0033,-0.3011 -0.0098,-0.54002 -0.0065,-0.24219 -0.0098,-0.42384 -0.0098,-0.54493 0,-0.44838 -0.194734,-0.67257 -0.584202,-0.67257 -0.127641,0 -0.276555,0.0556 -0.446743,0.16692 -0.183279,0.12437 -0.274919,0.2471 -0.274919,0.36819 v 2.651 c 0,0.10801 -0.05073,0.16856 -0.152187,0.18165 -0.114549,0.0131 -0.348557,0.0196 -0.702024,0.0196 -0.382923,0 -0.631659,-0.01 -0.746208,-0.0294 -0.101458,-0.0164 -0.152187,-0.0704 -0.152187,-0.16201 0,-0.25528 0.0016,-0.63984 0.0049,-1.15368 0.0033,-0.51383 0.0049,-0.90003 0.0049,-1.15858 0,-0.81494 -0.06382,-1.45478 -0.191461,-1.91952 -0.0065,-0.0295 -0.0098,-0.054 -0.0098,-0.0736 0,-0.0523 0.02455,-0.0883 0.07364,-0.108 0.206189,-0.0229 0.481107,-0.0589 0.824756,-0.10801 0.520381,-0.10146 0.813301,-0.15219 0.878758,-0.15219 0.036,0 0.06382,0.11128 0.08346,0.33383 0.01964,0.21928 0.04746,0.32892 0.08346,0.32892 -0.036,0 0.139097,-0.11291 0.525291,-0.33873 0.389468,-0.2291 0.729844,-0.34365 1.021127,-0.34365 0.415651,0 0.762572,0.0982 1.040763,0.29455 0.31092,0.22583 0.46638,0.54002 0.46638,0.94258 v 1.56606 c 0,0.21273 0.0016,0.53183 0.0049,0.9573 0.0033,0.4222 0.0049,0.73967 0.0049,0.9524 z"
             style="font-style:normal;font-variant:normal;font-weight:bold;font-stretch:normal;font-size:10.05416679px;font-family:'Berlin Sans FB Demi';-inkscape-font-specification:'Berlin Sans FB Demi, Bold';font-variant-ligatures:normal;font-variant-caps:normal;font-variant-numeric:normal;font-feature-settings:normal;text-align:start;writing-mode:lr-tb;text-anchor:start;fill:#ff6600;stroke-width:0.26458332"
             id="path6747" />
          <path
             d="m 96.470627,111.61228 c 0,0.66439 -0.279828,1.23386 -0.839484,1.70842 -0.490926,0.41892 -1.088219,0.68566 -1.79188,0.80021 -0.02618,0.003 -0.04745,0.005 -0.06382,0.005 -0.07527,0 -0.24219,-0.2291 -0.500745,-0.6873 -0.258555,-0.46147 -0.387832,-0.74293 -0.387832,-0.84439 0,-0.036 0.02455,-0.0589 0.07364,-0.0687 0.474562,-0.10801 0.788755,-0.19965 0.942578,-0.27492 0.340375,-0.17019 0.510563,-0.4222 0.510563,-0.75603 0,-0.21273 -0.111276,-0.45001 -0.333829,-0.71184 -0.386195,-0.44511 -0.595657,-0.69221 -0.628386,-0.7413 -0.225826,-0.34037 -0.338739,-0.71675 -0.338739,-1.12913 0,-0.59893 0.276555,-1.0964 0.829665,-1.49241 0.451652,-0.32729 1.006399,-0.54002 1.66424,-0.63821 0.036,-0.003 0.06382,-0.005 0.08346,-0.005 0.04909,0 0.08837,0.0393 0.117823,0.11783 0.08509,0.23891 0.2831,0.67093 0.59402,1.29604 0.0098,0.0197 0.01473,0.036 0.01473,0.0491 0,0.0557 -0.02946,0.0835 -0.08837,0.0835 -0.02618,0 -0.07036,-0.005 -0.13255,-0.0147 -0.06219,-0.01 -0.109643,-0.0147 -0.142368,-0.0147 -0.235645,0 -0.441834,0.054 -0.618567,0.162 -0.212735,0.12437 -0.319102,0.29783 -0.319102,0.52038 0,0.19965 0.117822,0.44511 0.353467,0.73639 0.415651,0.52365 0.633294,0.79857 0.652931,0.82476 0.232372,0.36001 0.348558,0.71839 0.348558,1.07513 z"
             style="font-style:normal;font-variant:normal;font-weight:bold;font-stretch:normal;font-size:10.05416679px;font-family:'Berlin Sans FB Demi';-inkscape-font-specification:'Berlin Sans FB Demi, Bold';font-variant-ligatures:normal;font-variant-caps:normal;font-variant-numeric:normal;font-feature-settings:normal;text-align:start;writing-mode:lr-tb;text-anchor:start;fill:#ff6600;stroke-width:0.26458332"
             id="path6749" />
          <path
             d="m 99.038172,110.91516 c 0,0.89349 0.0033,1.57915 0.0098,2.05698 0,0.0753 0.0049,0.20456 0.01473,0.38783 0.0098,0.16692 0.01473,0.2962 0.01473,0.38784 0,0.0687 -0.04091,0.10964 -0.122732,0.12273 -0.147278,0.0262 -0.412378,0.0393 -0.7953,0.0393 -0.392741,0 -0.643114,-0.0131 -0.751117,-0.0393 -0.072,-0.0164 -0.112913,-0.0606 -0.122732,-0.13255 0,-0.01 0,-0.0802 0,-0.2111 0,-0.29129 0.0033,-0.72657 0.0098,-1.30586 0.0065,-0.58257 0.0098,-1.01786 0.0098,-1.30587 0,-1.37459 0.0016,-2.00134 0.0049,-1.88025 -0.0098,-0.72329 -0.05073,-1.34677 -0.122732,-1.87042 -0.0065,-0.036 -0.0098,-0.0638 -0.0098,-0.0835 0,-0.072 0.04255,-0.10801 0.127641,-0.10801 h 1.752606 c 0.08182,0 0.119459,0.0344 0.112913,0.1031 l -0.0049,0.0884 c -0.08509,1.41387 -0.127641,2.66409 -0.127641,3.75067 z"
             style="font-style:normal;font-variant:normal;font-weight:bold;font-stretch:normal;font-size:10.05416679px;font-family:'Berlin Sans FB Demi';-inkscape-font-specification:'Berlin Sans FB Demi, Bold';font-variant-ligatures:normal;font-variant-caps:normal;font-variant-numeric:normal;font-feature-settings:normal;text-align:start;writing-mode:lr-tb;text-anchor:start;fill:#ff6600;stroke-width:0.26458332"
             id="path6751" />
          <path
             d="m 104.87528,111.41591 c 0,0.25201 0.0147,0.62675 0.0442,1.12422 0.0295,0.49747 0.0442,0.87057 0.0442,1.11931 0,0.13091 -0.0573,0.20128 -0.17183,0.2111 -0.40583,0.0295 -0.87057,0.0442 -1.39423,0.0442 -0.0622,0 -0.10475,-0.0933 -0.12764,-0.27983 -0.0196,-0.18982 -0.0441,-0.28637 -0.0736,-0.28964 -0.0262,0.0131 -0.0606,0.0409 -0.10309,0.0835 -0.36656,0.36983 -0.7593,0.55475 -1.17822,0.55475 -0.63821,0 -1.16677,-0.25201 -1.58569,-0.75603 -0.396016,-0.47129 -0.594024,-1.03421 -0.594024,-1.68878 0,-0.75603 0.204551,-1.36478 0.613654,-1.82625 0.42547,-0.47783 1.00804,-0.71675 1.7477,-0.71675 0.51383,0 0.91967,0.18001 1.2175,0.54002 0.0131,0.0164 0.0245,0.0246 0.0344,0.0246 0.0295,0 0.0622,-0.0785 0.0982,-0.23565 0.0393,-0.16037 0.0851,-0.24055 0.13746,-0.24055 0.12109,0 0.35183,0.0344 0.6922,0.10309 0.32401,0.0655 0.55639,0.12111 0.69712,0.16692 0.0491,0.0196 0.0736,0.0458 0.0736,0.0785 0,0.0131 -0.005,0.0474 -0.0147,0.1031 -0.10473,0.59239 -0.1571,1.21914 -0.1571,1.88025 z m -1.58078,0.0294 c 0,-0.27819 -0.0884,-0.50729 -0.2651,-0.68729 -0.17346,-0.18328 -0.40092,-0.27492 -0.68239,-0.27492 -0.28146,0 -0.50892,0.09 -0.68238,0.27001 -0.17347,0.18001 -0.2602,0.41074 -0.2602,0.6922 0,0.2651 0.0916,0.49256 0.27492,0.68239 0.18328,0.18983 0.40583,0.28474 0.66766,0.28474 0.27819,0 0.50566,-0.09 0.68239,-0.27001 0.17673,-0.18328 0.2651,-0.41565 0.2651,-0.69712 z"
             style="font-style:normal;font-variant:normal;font-weight:bold;font-stretch:normal;font-size:10.05416679px;font-family:'Berlin Sans FB Demi';-inkscape-font-specification:'Berlin Sans FB Demi, Bold';font-variant-ligatures:normal;font-variant-caps:normal;font-variant-numeric:normal;font-feature-settings:normal;text-align:start;writing-mode:lr-tb;text-anchor:start;fill:#ff6600;stroke-width:0.26458332"
             id="path6753" />
          <path
             d="m 110.67312,110.37023 c 0,0.63493 -0.0196,1.02113 -0.0589,1.15859 -0.0491,0.16364 -0.40744,0.75602 -1.07513,1.77715 -0.10473,0.16037 -0.37474,0.53184 -0.81003,1.1144 -0.48111,0.64148 -0.75439,0.98022 -0.81984,1.01622 -0.0786,0.0491 -0.58094,0.0736 -1.50715,0.0736 -0.14073,0 -0.23564,-0.0164 -0.28473,-0.0491 -0.0425,-0.13419 -0.0965,-0.29292 -0.16201,-0.4762 -0.0523,-0.11455 -0.1047,-0.23074 -0.1571,-0.34856 -0.0753,-0.17019 -0.11291,-0.2831 -0.11291,-0.33874 0,-0.0622 0.0278,-0.0933 0.0835,-0.0933 0.90985,0 1.36477,-0.20783 1.36477,-0.62348 0,-0.036 -0.22255,-0.36165 -0.66766,-0.97694 -0.46147,-0.63166 -0.71511,-1.03095 -0.76093,-1.19786 -0.0262,-0.0949 -0.0393,-0.43365 -0.0393,-1.01622 0,-0.11782 0.003,-0.29455 0.01,-0.5302 0.007,-0.23892 0.01,-0.41729 0.01,-0.53511 0,-0.0851 0.054,-0.12764 0.16201,-0.12764 0.16691,0 0.41892,0.005 0.75602,0.0147 0.34038,0.01 0.59403,0.0147 0.76094,0.0147 0.0687,0 0.10309,0.0507 0.10309,0.15218 0,0.0916 -0.005,0.23074 -0.0147,0.41729 -0.01,0.18328 -0.0147,0.32074 -0.0147,0.41238 0,0.41237 0.007,0.6922 0.0196,0.83948 0.01,0.11455 0.10799,0.32729 0.29456,0.63821 0.19637,0.32401 0.33874,0.48601 0.42711,0.48601 0.0753,0 0.20291,-0.16037 0.38292,-0.48111 0.16691,-0.30437 0.25692,-0.50892 0.27001,-0.61365 0.0327,-0.28801 0.0491,-0.60057 0.0491,-0.93767 0,-0.0884 -0.008,-0.22255 -0.0246,-0.40256 -0.0163,-0.18001 -0.0245,-0.31583 -0.0245,-0.40747 0,-0.0622 0.0344,-0.0933 0.10309,-0.0933 0.16691,0 0.41565,-0.007 0.74621,-0.0196 0.33383,-0.0131 0.5842,-0.0196 0.75112,-0.0196 0.0851,0 0.14237,0.0425 0.17182,0.12764 0.0458,0.15055 0.0687,0.49911 0.0687,1.04567 z"
             style="font-style:normal;font-variant:normal;font-weight:bold;font-stretch:normal;font-size:10.05416679px;font-family:'Berlin Sans FB Demi';-inkscape-font-specification:'Berlin Sans FB Demi, Bold';font-variant-ligatures:normal;font-variant-caps:normal;font-variant-numeric:normal;font-feature-settings:normal;text-align:start;writing-mode:lr-tb;text-anchor:start;fill:#ff6600;stroke-width:0.26458332"
             id="path6755" />
          <path
             d="m 115.76894,111.20481 c 0,0.33055 -0.10637,0.51874 -0.31911,0.56456 -0.036,0.007 -0.37474,0.0427 -1.01621,0.10801 -0.3862,0.0425 -0.96222,0.0933 -1.72806,0.15218 0.0458,0.21274 0.18489,0.37475 0.41728,0.48602 0.18983,0.0916 0.40584,0.13746 0.64803,0.13746 0.29128,0 0.5842,-0.0786 0.87875,-0.23564 0.12437,-0.0786 0.24874,-0.1571 0.37311,-0.23565 0.0687,0.0327 0.18328,0.19965 0.34365,0.50075 0.16364,0.3011 0.24546,0.49256 0.24546,0.57438 0,0.0229 -0.0245,0.0606 -0.0736,0.11291 -0.39929,0.42875 -1.01949,0.64312 -1.86061,0.64312 -0.77893,0 -1.40732,-0.22746 -1.88516,-0.68239 -0.49092,-0.46147 -0.73638,-1.0784 -0.73638,-1.85079 0,-0.75275 0.21928,-1.36968 0.65784,-1.85079 0.45165,-0.49747 1.05058,-0.74621 1.79679,-0.74621 0.62838,0 1.16185,0.2291 1.60041,0.68729 0.43857,0.4582 0.65785,1.00313 0.65785,1.63479 z m -1.71825,-0.29947 c 0,-0.20291 -0.072,-0.38128 -0.216,-0.53511 -0.14401,-0.15382 -0.31583,-0.23073 -0.51548,-0.23073 -0.20619,0 -0.37637,0.0867 -0.51056,0.26019 -0.12437,0.16037 -0.18655,0.34855 -0.18655,0.56456 0,0.0884 0.0458,0.13255 0.13746,0.13255 0.24219,0 0.61856,-0.0376 1.12913,-0.11291 0.108,-0.0164 0.162,-0.0426 0.162,-0.0786 z"
             style="font-style:normal;font-variant:normal;font-weight:bold;font-stretch:normal;font-size:10.05416679px;font-family:'Berlin Sans FB Demi';-inkscape-font-specification:'Berlin Sans FB Demi, Bold';font-variant-ligatures:normal;font-variant-caps:normal;font-variant-numeric:normal;font-feature-settings:normal;text-align:start;writing-mode:lr-tb;text-anchor:start;fill:#ff6600;stroke-width:0.26458332"
             id="path6757" />
          <path
             d="m 119.57361,110.81207 c 0,0.12764 -0.0704,0.19146 -0.2111,0.19146 -0.0622,0 -0.15384,-0.003 -0.27492,-0.01 -0.11782,-0.01 -0.20619,-0.0147 -0.2651,-0.0147 -0.27165,0 -0.45656,0.0425 -0.55475,0.12764 -0.0982,0.0851 -0.14727,0.25692 -0.14727,0.51548 0,0.14073 0.002,0.3551 0.005,0.64311 0.007,0.28473 0.01,0.49747 0.01,0.6382 0,0.0949 0.007,0.23728 0.0196,0.42711 0.0131,0.18655 0.0196,0.32565 0.0196,0.41729 0,0.0786 -0.054,0.12273 -0.16201,0.13255 -0.15709,0.0131 -0.39765,0.0196 -0.72166,0.0196 -0.31092,0 -0.55966,-0.01 -0.74621,-0.0294 -0.108,-0.0131 -0.162,-0.0671 -0.162,-0.16201 0,-0.26183 0.002,-0.65293 0.005,-1.17331 0.003,-0.52365 0.005,-0.91639 0.005,-1.17822 0,-0.76912 -0.0704,-1.40242 -0.2111,-1.89989 -0.007,-0.0295 -0.01,-0.054 -0.01,-0.0736 0,-0.0491 0.0245,-0.0818 0.0736,-0.0982 0.18001,-0.0197 0.44347,-0.0557 0.79039,-0.10801 0.51711,-0.10145 0.78384,-0.15218 0.80021,-0.15218 0.0589,0 0.0966,0.10309 0.11291,0.30928 0.0163,0.20619 0.0458,0.30928 0.0884,0.30928 -0.0458,0 0.0884,-0.0851 0.40256,-0.25528 0.31419,-0.17346 0.61693,-0.26019 0.90821,-0.26019 0.18328,0 0.27492,0.0393 0.27492,0.11782 0,0.0949 -0.01,0.2291 -0.0295,0.40256 -0.0196,0.18655 -0.0311,0.32074 -0.0344,0.40256 0,0.0949 0.002,0.22092 0.005,0.37801 0.007,0.1931 0.01,0.32074 0.01,0.38293 z"
             style="font-style:normal;font-variant:normal;font-weight:bold;font-stretch:normal;font-size:10.05416679px;font-family:'Berlin Sans FB Demi';-inkscape-font-specification:'Berlin Sans FB Demi, Bold';font-variant-ligatures:normal;font-variant-caps:normal;font-variant-numeric:normal;font-feature-settings:normal;text-align:start;writing-mode:lr-tb;text-anchor:start;fill:#ff6600;stroke-width:0.26458332"
             id="path6759" />
          <path
             d="m 124.94615,112.4714 q 0,0.11291 -0.0245,0.33874 -0.0246,0.22582 -0.0246,0.34364 0,0.11783 -0.005,0.37311 -0.005,0.25037 -0.005,0.3731 0,0.12273 -0.162,0.12273 -0.0589,0 -0.46147,-0.0933 -0.44675,-0.0982 -1.66915,-0.0982 -0.37802,0 -1.13404,0.0393 -0.75603,0.0442 -1.12422,0.0442 -0.12764,0 -0.14237,-0.12273 -0.0147,-0.16692 -0.0736,-0.49584 -0.12273,-0.50074 -0.12273,-0.57438 0,-0.108 0.41238,-0.16201 0.4811,-0.0638 0.61856,-0.17673 0.49584,-0.41729 1.01622,-1.05549 0.66275,-0.80512 0.66275,-1.20768 0,-0.34856 -0.25528,-0.5842 -0.25037,-0.24055 -0.59893,-0.24055 -0.39274,0 -0.78057,0.15709 -0.26019,0.0982 -0.54493,0.28474 -0.24055,0.15219 -0.2651,0.15219 -0.16692,0 -0.16692,-0.39274 0,-0.30438 -0.0245,-0.44184 -0.01,-0.0638 -0.0736,-0.2651 -0.0589,-0.17182 -0.0589,-0.25528 0,-0.0638 0.0834,-0.12273 0.40747,-0.28965 1.08986,-0.45656 0.60875,-0.14728 1.18313,-0.14728 0.93276,0 1.56115,0.41238 0.7413,0.4811 0.7413,1.36968 0,1.18313 -1.79188,2.76392 1.27149,-0.0638 1.99316,-0.0638 0.14727,0 0.14727,0.18165 z"
             style="font-style:normal;font-variant:normal;font-weight:bold;font-stretch:normal;font-size:10.05416679px;font-family:'Berlin Sans FB Demi';-inkscape-font-specification:'Berlin Sans FB Demi, Bold';font-variant-ligatures:normal;font-variant-caps:normal;font-variant-numeric:normal;font-feature-settings:normal;text-align:start;writing-mode:lr-tb;text-anchor:start;fill:#ff6600;stroke-width:0.26458332"
             id="path6761" />
        </g>
        <rect
           y="113.09431"
           x="44.701744"
           height="0.31585497"
           width="80.481178"
           id="rect4565"
           style="opacity:1;fill:#ffffff;fill-opacity:1;stroke:none;stroke-width:0.10629661;stroke-linecap:square;stroke-linejoin:bevel;stroke-miterlimit:4;stroke-dasharray:none;stroke-dashoffset:37.05203247;stroke-opacity:1;paint-order:normal" />
        <rect
           y="111.1991"
           x="44.701744"
           height="0.31585503"
           width="80.481178"
           id="rect4565-5"
           style="opacity:1;fill:#ffffff;fill-opacity:1;stroke:none;stroke-width:0.10629661;stroke-linecap:square;stroke-linejoin:bevel;stroke-miterlimit:4;stroke-dasharray:none;stroke-dashoffset:37.05203247;stroke-opacity:1;paint-order:normal" />
        <rect
           y="109.30388"
           x="44.701744"
           height="0.31585503"
           width="80.481178"
           id="rect4565-5-5"
           style="opacity:1;fill:#ffffff;fill-opacity:1;stroke:none;stroke-width:0.10629661;stroke-linecap:square;stroke-linejoin:bevel;stroke-miterlimit:4;stroke-dasharray:none;stroke-dashoffset:37.05203247;stroke-opacity:1;paint-order:normal" />
        <rect
           y="107.40869"
           x="44.701744"
           height="0.31585503"
           width="80.481178"
           id="rect4565-5-2"
           style="opacity:1;fill:#ffffff;fill-opacity:1;stroke:none;stroke-width:0.10629661;stroke-linecap:square;stroke-linejoin:bevel;stroke-miterlimit:4;stroke-dasharray:none;stroke-dashoffset:37.05203247;stroke-opacity:1;paint-order:normal" />
        <rect
           y="114.9895"
           x="44.701744"
           height="0.315855"
           width="80.481178"
           id="rect4565-2"
           style="opacity:1;fill:#ffffff;fill-opacity:1;stroke:none;stroke-width:0.10629661;stroke-linecap:square;stroke-linejoin:bevel;stroke-miterlimit:4;stroke-dasharray:none;stroke-dashoffset:37.05203247;stroke-opacity:1;paint-order:normal" />
      </g>
    </g>
  </g>
</svg>
